P2
# Created hand
3 3
255
1  0 -1
0  0  0
-1 0  1
