P2
# Created hand
3 3
255
1  2  1
2  4  2
1  2  1
