P2
# Created by hand
3 3
255
0  0  0
0  1  0
0  0  0
