P2
# Created hand
5 5
255
0  0  0  0  0
0  0  0  0  0
0  0  1  0  0
0  0  0  0  0
0  0  0  0  0
