P2
# Created hand
5 5
255
3  5   6   5   3
5  36  24  36  5
6  24  36  24  6
5  36  24  36  5
3  5   6   5   3
