P2
# Created hand
3 3
255
3  5  3
5  7  5
3  5  3
