P2
# Created by GIMP version 2.10.18 PNM plug-in
16 16
255
161
155
152
132
104
94
88
83
88
99
105
101
91
97
107
131
157
149
144
134
131
133
131
142
159
159
138
125
116
97
105
115
154
146
143
142
147
160
175
184
185
181
172
165
159
144
126
124
143
132
134
149
168
182
191
189
183
179
176
172
165
157
148
138
124
120
143
167
174
182
185
184
176
172
170
165
166
158
157
150
108
118
147
150
140
147
158
165
155
147
145
156
158
153
152
153
97
116
122
118
135
150
145
149
141
145
148
139
136
149
150
149
98
136
131
117
114
135
113
135
126
123
132
121
125
129
145
147
109
129
92
94
131
189
132
148
132
134
138
111
79
102
140
138
112
128
133
125
124
128
116
114
116
122
116
96
71
82
121
137
117
99
115
129
136
150
140
131
127
122
117
123
119
109
114
134
124
123
105
117
123
138
161
161
154
149
146
142
131
130
134
139
130
143
136
124
131
138
135
146
151
152
138
125
136
139
152
158
133
149
157
145
132
147
155
153
154
153
155
154
155
164
167
164
136
149
158
161
156
145
154
158
164
170
169
161
157
167
169
170
141
148
154
157
166
157
150
159
167
169
170
168
169
166
174
175
