P2
# Created by GIMP version 2.10.36 PNM plug-in
11 9
255
185
192
188
193
203
216
213
186
149
124
115
188
191
192
199
214
219
202
169
133
118
113
196
196
199
205
216
212
184
149
121
115
112
198
197
201
208
215
201
167
134
116
113
111
195
199
208
214
208
183
147
123
114
112
110
193
200
210
213
198
165
131
116
112
111
109
192
202
214
209
182
146
120
113
111
110
109
197
207
213
196
163
131
116
112
111
109
108
203
214
207
178
142
121
114
112
110
109
108
