P2
# Created by GIMP version 2.10.30 PNM plug-in
10 10
255
125 125 125 125 125 125 125 125 125 125
125 255 255 255 255 255 255 255 255 125
125 255 125 125 125 125 125 125 255 125
125 255 125 255 255 255 255 125 255 125
125 255 125 255 125 125 255 125 255 125
125 255 125 255 125 125 255 125 255 125
125 255 125 255 255 255 255 125 255 125
125 255 125 125 125 125 125 125 255 125
125 255 255 255 255 255 255 255 255 125
125 125 125 125 125 125 125 125 125 125
